<svg fill="none" height="25" viewBox="0 0 30 25" width="30" xmlns="http://www.w3.org/2000/svg"><path d="m1.00914 22.5366c-.29681-.4589-.399182-1.0168-.284599-1.5512.114583-.5343.436739-1.0012.895589-1.298l20.26997-13.11164-11.97096-1.8796c-.53734-.08748-1.01821-.38406-1.33758-.82494-.31937-.44089-.45129-.99025-.36693-1.52808s.37814-1.02042.81716-1.34235c.43903-.321927.98761-.457031 1.52591-.375798l17.299 2.716188c.2868.04469.5609.14947.8044.30746.2435.158.4508.36565.6084.60935.1577.2437.2621.51796.3063.8048.0443.28685.0275.57982-.0493.85971l-4.6157 16.8917c-.0701.2624-.1914.5083-.3569.7237-.1655.2153-.3719.3958-.6074.5311-.2356.1353-.4955.2227-.7649.2572-.2694.0344-.5429.0153-.8049-.0563-.262-.0717-.5072-.1944-.7216-.3611-.2144-.1668-.3937-.3743-.5276-.6105-.1339-.2363-.2198-.4968-.2527-.7664s-.0122-.543.0609-.8046l3.1926-11.6913-20.26993 13.1116c-.45886.2968-1.01682.3992-1.55116.2846-.53433-.1146-1.00126-.4368-1.29807-.8956z" fill="#fff"/></svg>