<svg width="17" height="17" viewBox="0 0 17 17" fill="none" xmlns="http://www.w3.org/2000/svg">
<path d="M5.09217 0.326172H11.9948C14.6243 0.326172 16.7609 2.46269 16.7609 5.09226V11.9949C16.7609 13.2589 16.2587 14.4712 15.3649 15.365C14.4711 16.2588 13.2588 16.761 11.9948 16.761H5.09217C2.4626 16.761 0.32608 14.6244 0.32608 11.9949V5.09226C0.32608 3.82821 0.82822 2.61594 1.72203 1.72213C2.61585 0.828312 3.82812 0.326172 5.09217 0.326172ZM4.92782 1.96965C4.14324 1.96965 3.39079 2.28132 2.83601 2.8361C2.28123 3.39089 1.96956 4.14333 1.96956 4.92791V12.1592C1.96956 13.7945 3.29256 15.1175 4.92782 15.1175H12.1591C12.9437 15.1175 13.6961 14.8058 14.2509 14.251C14.8057 13.6962 15.1174 12.9438 15.1174 12.1592V4.92791C15.1174 3.29265 13.7944 1.96965 12.1591 1.96965H4.92782ZM12.8576 3.20226C13.13 3.20226 13.3913 3.31048 13.5839 3.50311C13.7766 3.69574 13.8848 3.95701 13.8848 4.22943C13.8848 4.50186 13.7766 4.76312 13.5839 4.95575C13.3913 5.14839 13.13 5.25661 12.8576 5.25661C12.5852 5.25661 12.3239 5.14839 12.1313 4.95575C11.9386 4.76312 11.8304 4.50186 11.8304 4.22943C11.8304 3.95701 11.9386 3.69574 12.1313 3.50311C12.3239 3.31048 12.5852 3.20226 12.8576 3.20226ZM8.54347 4.43487C9.63316 4.43487 10.6782 4.86775 11.4488 5.63828C12.2193 6.40881 12.6522 7.45387 12.6522 8.54356C12.6522 9.63326 12.2193 10.6783 11.4488 11.4488C10.6782 12.2194 9.63316 12.6523 8.54347 12.6523C7.45378 12.6523 6.40871 12.2194 5.63818 11.4488C4.86765 10.6783 4.43478 9.63326 4.43478 8.54356C4.43478 7.45387 4.86765 6.40881 5.63818 5.63828C6.40871 4.86775 7.45378 4.43487 8.54347 4.43487ZM8.54347 6.07835C7.88965 6.07835 7.26262 6.33807 6.8003 6.80039C6.33798 7.26271 6.07825 7.88975 6.07825 8.54356C6.07825 9.19738 6.33798 9.82442 6.8003 10.2867C7.26262 10.7491 7.88965 11.0088 8.54347 11.0088C9.19729 11.0088 9.82433 10.7491 10.2866 10.2867C10.749 9.82442 11.0087 9.19738 11.0087 8.54356C11.0087 7.88975 10.749 7.26271 10.2866 6.80039C9.82433 6.33807 9.19729 6.07835 8.54347 6.07835Z" fill="#A46565"/>
</svg>
